<svg width="18" height="17" viewBox="0 0 18 17" fill="none" xmlns="http://www.w3.org/2000/svg">
<path opacity="0.5" fill-rule="evenodd" clip-rule="evenodd" d="M8.79925 14.4999C8.25144 14.4999 7.7174 14.4537 7.19819 14.3734L3.44558 16.5001V12.9596C1.489 11.6767 0.233276 9.70951 0.233276 7.49994C0.233276 3.63404 4.06844 0.499969 8.79925 0.499969C13.5301 0.499969 17.3652 3.63404 17.3652 7.49994C17.3652 11.3661 13.5301 14.4999 8.79925 14.4999ZM8.79925 1.50014C4.65976 1.50014 1.30403 4.18641 1.30403 7.49994C1.30403 9.53322 2.57056 11.3268 4.50303 12.4121L4.46927 14.7313L6.98956 13.3165C7.57007 13.432 8.17406 13.5 8.79925 13.5C12.9387 13.5 16.2946 10.8138 16.2946 7.49994C16.2946 4.18641 12.9387 1.50014 8.79925 1.50014ZM12.5469 7.00002H5.05165C4.75598 7.00002 4.51625 6.77605 4.51625 6.50005C4.51625 6.22379 4.75598 6 5.05165 6H12.5469C12.8425 6 13.0823 6.22379 13.0823 6.50005C13.0823 6.77605 12.8425 7.00002 12.5469 7.00002ZM6.12241 9.00002H11.4761C11.7718 9.00002 12.0116 9.22385 12.0116 9.49999C12.0116 9.77627 11.7718 10.0001 11.4761 10.0001H6.12241C5.82667 10.0001 5.58703 9.77627 5.58703 9.49999C5.58703 9.22385 5.82667 9.00002 6.12241 9.00002Z" fill="white"/>
</svg>
