<svg width="16" height="15" viewBox="0 0 16 15" fill="none" xmlns="http://www.w3.org/2000/svg">
<path opacity="0.6" fill-rule="evenodd" clip-rule="evenodd" d="M14.7354 5.84992L13.5749 6.48092C13.6401 6.81222 13.6828 7.15072 13.6828 7.50011C13.6828 7.84934 13.6401 8.18784 13.5749 8.51916L14.7354 9.15011C15.2095 9.40783 15.3719 9.97861 15.0983 10.425L14.1071 12.0417C13.8334 12.488 13.2273 12.641 12.7533 12.3833L11.5808 11.7459C11.0331 12.1849 10.4104 12.5439 9.71834 12.7747V13.5666C9.71834 14.0821 9.27462 14.5 8.72717 14.5H6.74496C6.19768 14.5 5.75396 14.0821 5.75396 13.5666V12.7747C5.06187 12.5439 4.43919 12.1849 3.89138 11.7459L2.71902 12.3833C2.24493 12.641 1.63879 12.488 1.3651 12.0417L0.374021 10.425C0.100356 9.97861 0.262784 9.40783 0.73679 9.15011L1.89727 8.51916C1.83222 8.18784 1.78951 7.84934 1.78951 7.50011C1.78951 7.15072 1.83222 6.81222 1.89727 6.48092L0.73679 5.84992C0.262784 5.59223 0.100356 5.02132 0.374021 4.57504L1.3651 2.95842C1.63879 2.51196 2.24493 2.35894 2.71902 2.61677L3.89138 3.25421C4.43919 2.81499 5.06187 2.45618 5.75396 2.22547V1.43341C5.75396 0.917987 6.19768 0.500092 6.74496 0.500092H8.72717C9.27462 0.500092 9.71834 0.917987 9.71834 1.43341V2.22547C10.4104 2.45618 11.0331 2.81499 11.5808 3.25421L12.7533 2.61677C13.2273 2.35894 13.8334 2.51196 14.1071 2.95842L15.0983 4.57504C15.3719 5.02132 15.2095 5.59223 14.7354 5.84992ZM13.9921 4.63746L13.4966 3.82913C13.3597 3.60606 13.0566 3.52944 12.8197 3.65837L11.4428 4.40701C10.7439 3.66462 9.79946 3.13208 8.72717 2.9271V1.90004C8.72717 1.6423 8.50531 1.43341 8.23165 1.43341H7.24057C6.9668 1.43341 6.74496 1.6423 6.74496 1.90004V2.9271C5.67276 3.13208 4.72832 3.66462 4.02951 4.40701L2.65264 3.65837C2.41558 3.52944 2.11252 3.60606 1.97563 3.82913L1.48018 4.63746C1.34329 4.86068 1.42452 5.1462 1.66147 5.27499L3.0439 6.02659C2.87922 6.49078 2.78058 6.98356 2.78058 7.50011C2.78058 8.01652 2.87922 8.50924 3.0439 8.97354L1.66147 9.72507C1.42452 9.85402 1.34329 10.1394 1.48018 10.3626L1.97563 11.1708C2.11252 11.394 2.41558 11.4705 2.65264 11.3416L4.02943 10.5931C4.72832 11.3355 5.67276 11.868 6.74496 12.073V13.1001C6.74496 13.3578 6.9668 13.5666 7.24057 13.5666H8.23165C8.50531 13.5666 8.72717 13.3578 8.72717 13.1001V12.073C9.79946 11.868 10.7439 11.3355 11.4428 10.5931L12.8197 11.3416C13.0566 11.4705 13.3597 11.394 13.4966 11.1708L13.9921 10.3626C14.129 10.1394 14.0477 9.85402 13.8107 9.72507L12.4283 8.97354C12.5931 8.50924 12.6916 8.01652 12.6916 7.50011C12.6916 6.98356 12.5931 6.49078 12.4283 6.02659L13.8107 5.27499C14.0477 5.1462 14.129 4.86068 13.9921 4.63746ZM7.73611 9.83328C6.36763 9.83328 5.25835 8.78867 5.25835 7.50011C5.25835 6.21127 6.36763 5.16666 7.73611 5.16666C9.1045 5.16666 10.2139 6.21127 10.2139 7.50011C10.2139 8.78867 9.1045 9.83328 7.73611 9.83328ZM7.73611 6.10002C6.91508 6.10002 6.2495 6.72683 6.2495 7.50011C6.2495 8.2732 6.91508 8.89991 7.73611 8.89991C8.55714 8.89991 9.22271 8.2732 9.22271 7.50011C9.22271 6.72683 8.55714 6.10002 7.73611 6.10002Z" fill="white"/>
</svg>
